{"title":"Commando (2013) DVDScr X264 MP3 Hindi Movie","uid":8382996,"size":789278021,"categoryP":"video","categoryS":"movies","magnet":"?xt=urn:btih:b7d811a4111c0f28ed27f1639e01931b72dab53b&amp;dn=Commando+%282013%29+DVDScr+X264+MP3+Hindi+Movie&amp;tr=udp%3A%2F%2Ftracker.openbittorrent.com%3A80&amp;tr=udp%3A%2F%2Fopen.demonii.com%3A1337&amp;tr=udp%3A%2F%2Ftracker.coppersurfer.tk%3A6969&amp;tr=udp%3A%2F%2Fexodus.desync.com%3A6969","seeders":1,"leechers":0,"uploader":"shaan666","files":-1,"time":1366218277,"description":"Commando (2013)\n &lt;a href=&quot;\nhttp://www.shotpix.com/images/06823195640831876355.jpg&quot; rel=&quot;nofollow&quot; target=&quot;_NEW&quot;&gt;\nhttp://www.shotpix.com/images/06823195640831876355.jpg&lt;/a&gt;\n\n\n[B]INFO[/B]\n\n[CODE]\nFormat                                   : Matroska\nFormat version                           : Version 4 / Version 2\nFile size                                : 748 MiB\nDuration                                 : 1h 58mn\nOverall bit rate mode                    : Variable\nOverall bit rate                         : 880 Kbps\n[/CODE]\n\nVIDEO \n[CODE]Format                                   : AVC\nFormat/Info                              : Advanced Video Codec\nFormat profile                           : &lt;a class=&quot;__cf_email__&quot; href=&quot;/cdn-cgi/l/email-protection&quot; data-cfemail=&quot;420a2b252a020e716c72&quot;&gt;[email&amp;#160;protected]&lt;/a&gt;&lt;script cf-hash='f9e31' type=&quot;text/javascript&quot;&gt;\n/* &lt;![CDATA[ */!function(){try{var t=&quot;currentScript&quot;in document?document.currentScript:function(){for(var t=document.getElementsByTagName(&quot;script&quot;),e=t.length;e--;)if(t[e].getAttribute(&quot;cf-hash&quot;))return t[e]}();if(t&amp;&amp;t.previousSibling){var e,r,n,i,c=t.previousSibling,a=c.getAttribute(&quot;data-cfemail&quot;);if(a){for(e=&quot;&quot;,r=parseInt(a.substr(0,2),16),n=2;a.length-n;n+=2)i=parseInt(a.substr(n,2),16)^r,e+=String.fromCharCode(i);e=document.createTextNode(e),c.parentNode.replaceChild(e,c)}}}catch(u){}}();/* ]]&gt; */&lt;/script&gt;\nFormat settings, CABAC                   : Yes\nFormat settings, ReFrames                : 4 frames\nCodec ID                                 : V_MPEG4/ISO/AVC\nDuration                                 : 1h 58mn\nBit rate                                 : 796 Kbps\nWidth                                    : 720 pixels\nHeight                                   : 352 pixels\nDisplay aspect ratio                     : 2.045\nFrame rate mode                          : Constant\nFrame rate                               : 25.000 fps\nColor space                              : YUV\nChroma subsampling                       : 4:2:0\nBit depth                                : 8 bits\nScan type                                : Progressive\nBits/(Pixel*Frame)                       : 0.126\nStream size                              : 665 MiB (89%)[/CODE]\n\nAUDIO\n[CODE]Format                                   : MPEG Audio\nFormat version                           : Version 1\nFormat profile                           : Layer 3\nMode                                     : Joint stereo\nMode extension                           : MS Stereo\nCodec ID                                 : A_MPEG/L3\nCodec ID/Hint                            : MP3\nDuration                                 : 2h 1mn\nBit rate mode                            : Variable\nBit rate                                 : 80.0 Kbps\nChannel(s)                               : 2 channels\nSampling rate                            : 32.0 KHz\nCompression mode                         : Lossy\nStream size                              : 69.7 MiB (9%)\nLanguage                                 : Hindi[/CODE]\n\n\n[B]SCREEN SHOTS[/B]\n &lt;a href=&quot;\nhttp://www.shotpix.com/images/24322822195880017720.jpg&quot; rel=&quot;nofollow&quot; target=&quot;_NEW&quot;&gt;\nhttp://www.shotpix.com/images/24322822195880017720.jpg&lt;/a&gt;\n &lt;a href=&quot;\nhttp://www.shotpix.com/images/80391631437198302302.jpg&quot; rel=&quot;nofollow&quot; target=&quot;_NEW&quot;&gt;\nhttp://www.shotpix.com/images/80391631437198302302.jpg&lt;/a&gt;\n &lt;a href=&quot;\nhttp://www.shotpix.com/images/84740076811058078339.jpg&quot; rel=&quot;nofollow&quot; target=&quot;_NEW&quot;&gt;\nhttp://www.shotpix.com/images/84740076811058078339.jpg&lt;/a&gt;\n &lt;a href=&quot;\nhttp://www.shotpix.com/images/09343610717201683855.jpg&quot; rel=&quot;nofollow&quot; target=&quot;_NEW&quot;&gt;\nhttp://www.shotpix.com/images/09343610717201683855.jpg&lt;/a&gt;\n &lt;a href=&quot;\nhttp://www.shotpix.com/images/96095937455031836472.jpg&quot; rel=&quot;nofollow&quot; target=&quot;_NEW&quot;&gt;\nhttp://www.shotpix.com/images/96095937455031836472.jpg&lt;/a&gt;\n &lt;a href=&quot;\nhttp://www.shotpix.com/images/38020803501426040638.jpg&quot; rel=&quot;nofollow&quot; target=&quot;_NEW&quot;&gt;\nhttp://www.shotpix.com/images/38020803501426040638.jpg&lt;/a&gt;\n &lt;a href=&quot;\nhttp://www.shotpix.com/images/14908673861592716906.jpg&quot; rel=&quot;nofollow&quot; target=&quot;_NEW&quot;&gt;\nhttp://www.shotpix.com/images/14908673861592716906.jpg&lt;/a&gt;","torrent":{"xt":"urn:btih:b7d811a4111c0f28ed27f1639e01931b72dab53b","amp;dn":"Commando+%282013%29+DVDScr+X264+MP3+Hindi+Movie","amp;tr":["udp%3A%2F%2Ftracker.openbittorrent.com%3A80","udp%3A%2F%2Fopen.demonii.com%3A1337","udp%3A%2F%2Ftracker.coppersurfer.tk%3A6969","udp%3A%2F%2Fexodus.desync.com%3A6969"],"infoHash":"b7d811a4111c0f28ed27f1639e01931b72dab53b","infoHashBuffer":{"type":"Buffer","data":[183,216,17,164,17,28,15,40,237,39,241,99,158,1,147,27,114,218,181,59]},"announce":[],"urlList":[]}}